<svg xmlns="http://www.w3.org/2000/svg" viewBox="0 0 800 500" width="800" height="500">
  <defs>
    <linearGradient id="grad-cyan" x1="0%" y1="0%" x2="100%" y2="100%">
      <stop offset="0%" stop-color="#06b6d4" />
      <stop offset="100%" stop-color="#3b82f6" />
    </linearGradient>
    <linearGradient id="grad-emerald" x1="0%" y1="0%" x2="100%" y2="100%">
      <stop offset="0%" stop-color="#10b981" />
      <stop offset="100%" stop-color="#06b6d4" />
    </linearGradient>
    <linearGradient id="grad-purple" x1="0%" y1="0%" x2="100%" y2="100%">
      <stop offset="0%" stop-color="#8b5cf6" />
      <stop offset="100%" stop-color="#ec4899" />
    </linearGradient>
    <linearGradient id="grad-amber" x1="0%" y1="0%" x2="100%" y2="100%">
      <stop offset="0%" stop-color="#f59e0b" />
      <stop offset="100%" stop-color="#ef4444" />
    </linearGradient>
    <linearGradient id="bg-dark" x1="0%" y1="0%" x2="0%" y2="100%">
      <stop offset="0%" stop-color="#111827" />
      <stop offset="100%" stop-color="#0b0f19" />
    </linearGradient>
  </defs>
  <style>
    .title { font-family: system-ui, -apple-system, sans-serif; font-weight: 800; fill: #ffffff; }
    .subtitle { font-family: system-ui, -apple-system, sans-serif; font-weight: 500; fill: #94a3b8; }
    .badge { font-family: monospace; font-size: 13px; font-weight: 600; }
  </style>
  
  <rect width="800" height="500" rx="24" fill="url(#bg-dark)" />
  <rect x="40" y="40" width="720" height="420" rx="16" fill="#1e293b" stroke="#334155" stroke-width="2" />
  <rect x="40" y="40" width="720" height="44" rx="16" fill="#0f172a" />
  <circle cx="65" cy="62" r="6" fill="#ef4444" />
  <circle cx="85" cy="62" r="6" fill="#f59e0b" />
  <circle cx="105" cy="62" r="6" fill="#10b981" />
  <rect x="140" y="50" width="400" height="24" rx="6" fill="#1e293b" />
  <text x="160" y="66" class="subtitle" font-size="12">https://bookcart-store.dev</text>
  
  <rect x="65" y="105" width="220" height="330" rx="12" fill="#0b0f19" stroke="url(#grad-cyan)" stroke-width="2" />
  <rect x="80" y="125" width="190" height="180" rx="8" fill="#1e293b" />
  <text x="175" y="215" class="title" font-size="32" fill="url(#grad-cyan)" text-anchor="middle">📚</text>
  <text x="85" y="335" class="title" font-size="16">BookCart E-Store</text>
  <text x="85" y="360" class="subtitle" font-size="13">MERN Architecture</text>
  <rect x="85" y="380" width="90" height="28" rx="6" fill="#06b6d4" />
  <text x="130" y="399" class="badge" fill="#ffffff" text-anchor="middle">$39.99</text>

  <rect x="310" y="105" width="425" height="150" rx="12" fill="#0b0f19" stroke="#334155" stroke-width="1.5" />
  <text x="330" y="138" class="title" font-size="17">⚡ Cart &amp; Real-time Checkout</text>
  <text x="330" y="165" class="subtitle" font-size="13">JWT Cookie Auth • MongoDB Aggregations • Atomic $inc Transactions</text>
  <rect x="330" y="190" width="90" height="32" rx="6" fill="#10b981" fill-opacity="0.2" stroke="#10b981" />
  <text x="375" y="211" class="badge" fill="#34d399" text-anchor="middle">In Stock</text>
  <rect x="435" y="190" width="140" height="32" rx="6" fill="#06b6d4" fill-opacity="0.2" stroke="#06b6d4" />
  <text x="505" y="211" class="badge" fill="#38bdf8" text-anchor="middle">Fast Checkout</text>

  <rect x="310" y="275" width="425" height="160" rx="12" fill="#0b0f19" stroke="#334155" stroke-width="1.5" />
  <text x="330" y="308" class="title" font-size="17">📊 65KB Serverless Function Bundle</text>
  <path d="M 335 390 L 390 350 L 450 370 L 520 330 L 590 345 L 680 300" fill="none" stroke="url(#grad-cyan)" stroke-width="3" />

</svg>